<?xml version="1.0" standalone="no"?>
<!DOCTYPE svg PUBLIC "-//W3C//DTD SVG 1.1//EN" "http://www.w3.org/Graphics/SVG/1.1/DTD/svg11.dtd" >
<svg xmlns="http://www.w3.org/2000/svg">
<metadata>
This is a custom SVG webfont generated by Font Squirrel.
Copyright   : Copyright c 2009 by Morice Kastoun All rights reserved
Foundry     : Morice Kastoun
</metadata>
<defs>
<font id="OceaniaRegular" horiz-adv-x="1024" >
<font-face units-per-em="2048" ascent="1638" descent="-410" />
<missing-glyph horiz-adv-x="491" />
<glyph unicode=" "  horiz-adv-x="491" />
<glyph unicode="&#x09;" horiz-adv-x="491" />
<glyph unicode="&#xa0;" horiz-adv-x="491" />
<glyph unicode="!" horiz-adv-x="624" d="M156 135q0 147 155 148q158 0 158 -148q0 -150 -158 -149q-155 -1 -155 149zM188 969v569h248v-569l-26 -473h-197q-4 53 -8 141z" />
<glyph unicode="&#x22;" horiz-adv-x="866" d="M100 1542h265l-21 -565h-223zM502 1542h264l-21 -565h-223z" />
<glyph unicode="#" horiz-adv-x="1200" d="M66 264l43 242h196l64 362h-195l43 242h197l43 244h157l-43 -244h217l46 244h157l-45 -244h189l-43 -242h-189l-63 -362h186l-43 -242h-188l-45 -264h-160l47 264h-217l-47 -264h-158l45 264h-194zM463 506h219l63 362h-217z" />
<glyph unicode="$" horiz-adv-x="1236" d="M150 1036q0 61 12 129q33 166 168 246q104 59 241 59q29 0 62 -2q86 -8 198 -32l68 202h100l-71 -219q45 -6 84 -6q31 0 57 4l-29 -248q-27 -4 -53 -4q-20 0 -43 2q-35 6 -92 23l-117 -350q231 -43 336 -185q74 -98 74 -231q0 -43 -8 -92q-31 -193 -156 -277 q-113 -76 -324 -75q-88 0 -198 28l-64 -194h-102l74 219q-109 27 -189 26h-10l10 88q10 100 19 156q14 2 28 2q43 0 94 -10q45 -10 123 -33l121 361q-233 41 -336 168q-77 98 -77 245zM416 1053q0 -152 223 -197l121 363l-62 14q-51 10 -92 10q-160 0 -186 -151 q-4 -21 -4 -39zM535 233l47 -12q25 -6 47 -8q33 -4 59 -4q152 0 180 149q4 25 4 50q0 154 -215 198z" />
<glyph unicode="%" horiz-adv-x="1792" d="M90 954v62q0 156 74 262q84 121 227 121h33q143 0 227 -121q74 -109 74 -262v-62q0 -154 -74 -262q-86 -121 -229 -121h-31q-143 0 -227 123q-74 106 -74 260zM268 952q2 -86 29 -141q35 -70 100 -70h21q66 0 100 70q27 55 29 141v66q-2 86 -29 141q-35 68 -100 72h-21 q-66 -4 -100 -72q-27 -55 -29 -141v-66zM545 0l573 1430h160l-573 -1430h-160zM1071 367v61q0 156 74 262q84 121 227 121h33q143 0 227 -121q74 -109 74 -262v-61q0 -154 -74 -263q-86 -121 -229 -120h-31q-143 0 -227 122q-74 107 -74 261zM1249 365q2 -86 29 -142 q35 -70 100 -69h21q66 0 100 69q27 55 29 142v65q-2 86 -29 141q-35 68 -100 72h-21q-66 -4 -100 -72q-27 -55 -29 -141v-65z" />
<glyph unicode="&#x26;" horiz-adv-x="1400" d="M100 408q0 57 17 120q55 231 274 344q-70 90 -102 158q-43 84 -43 164q0 160 116 260q111 96 269 96q156 0 264 -94q115 -98 115 -256q0 -125 -80 -229q-68 -86 -193 -160l84 -102l99 -121l28 74q18 45 35 75q41 84 104 135q86 70 191 70l45 -2q37 -6 84 -16v-230 q-6 0 -18 4l-46 9q-14 2 -24 2h-16q-51 0 -84 -23l-25 -27q-14 -23 -29 -55q-14 -31 -37 -96q-20 -66 -36 -100l256 -297l96 -111h-314q-31 35 -79 96l-80 97q-184 -213 -422 -213q-209 0 -334 143q-115 125 -115 285zM358 442q0 -78 58 -141q61 -70 145 -70q27 0 58 9 q111 27 192 133l-70 82q-18 18 -39 45l-40 47q-49 61 -72 86l-53 61q-123 -47 -164 -170q-15 -43 -15 -82zM496 1192q0 -98 92 -201l67 39q33 23 54 45q51 51 51 125q0 53 -37 94q-37 39 -88 39h-8q-53 0 -90 -43q-41 -43 -41 -98z" />
<glyph unicode="'" horiz-adv-x="464" d="M100 1542h265l-21 -565h-223z" />
<glyph unicode="(" horiz-adv-x="735" d="M133 625q0 238 74 471q78 246 225 446h232q-141 -207 -215 -450q-68 -229 -68 -467q0 -233 68 -459q74 -240 215 -451h-232q-145 195 -223 437q-76 233 -76 473z" />
<glyph unicode=")" horiz-adv-x="735" d="M72 -285q141 207 215 451q68 229 67 467q0 233 -67 459q-74 240 -215 450h231q145 -195 223 -436q76 -233 76 -473q0 -238 -74 -471q-78 -246 -225 -447h-231z" />
<glyph unicode="*" horiz-adv-x="901" d="M31 1165l67 205l258 -102l-16 274h219l-14 -274l256 102l67 -205l-270 -71l180 -211l-178 -127l-149 231l-150 -231l-180 127l182 211z" />
<glyph unicode="+" horiz-adv-x="1085" d="M92 434v221h340v408h221v-408h338v-221h-338v-409h-221v409h-340z" />
<glyph unicode="," horiz-adv-x="583" d="M43 -233q125 80 160 124q31 37 30 99v37h-18q-90 0 -90 110q0 147 160 148q180 0 180 -215q0 -279 -289 -453z" />
<glyph unicode="-" horiz-adv-x="512" d="M47 440v207h418v-207h-418z" />
<glyph unicode="." horiz-adv-x="583" d="M133 135q0 150 158 150q160 0 160 -150q0 -152 -160 -151q-158 -1 -158 151z" />
<glyph unicode="/" horiz-adv-x="729" d="M-39 -285l639 1786h219l-641 -1786h-217z" />
<glyph unicode="0" horiz-adv-x="1300" d="M172 594v108q0 236 121 412q137 201 358 201h39q225 0 361 -201q119 -174 118 -412v-108q0 -233 -116 -406q-135 -193 -363 -206h-39q-227 14 -362 206q-117 173 -117 406zM426 584q0 -150 51 -250q66 -129 197 -129q145 0 200 119q23 47 33 120q6 53 8 140v123 q-4 164 -53 262q-61 121 -180 121h-6q-125 0 -191 -117q-55 -102 -59 -266v-123z" />
<glyph unicode="1" horiz-adv-x="784" d="M43 991l348 320l221 -68v-1243h-250v1036l-204 -198z" />
<glyph unicode="2" horiz-adv-x="1204" d="M127 1055q39 53 76 94q47 53 98 90q127 92 274 92q217 0 336 -129q115 -125 115 -301q0 -90 -53 -186q-45 -80 -133 -172q-37 -39 -84 -84l-176 -162q-47 -43 -80 -78h538v-219h-843l-58 223q53 53 142 133l319 291q80 76 127 131q61 70 61 148q0 37 -14 75 q-45 121 -176 123q-80 0 -152 -67q-29 -27 -65 -76q-14 -16 -35 -45l-39 -51z" />
<glyph unicode="3" horiz-adv-x="1224" d="M98 -2l158 192q6 -6 18 -14l60 -47q49 -39 88 -61q102 -66 178 -66q125 4 176 55q53 53 53 170v21q0 86 -73 141q-68 51 -162 53h-215v220h215q78 0 143 55q68 57 68 137v43q-12 190 -209 190q-88 0 -176 -55q-35 -23 -74 -55q-31 -27 -67 -66l-158 195l67 57 q49 39 97 68q141 84 311 84q193 0 326 -123q135 -127 135 -315v-19q0 -82 -51 -170q-37 -68 -107 -137l14 -10q10 -6 15 -11q74 -66 108 -124q45 -76 45 -166v-13q0 -205 -131 -329q-129 -125 -348 -125h-2q-129 0 -274 75q-57 31 -121 74z" />
<glyph unicode="4" horiz-adv-x="1302" d="M102 334q10 23 33 65l234 451l110 207q57 115 207 268h295q-57 -63 -135 -164q-88 -113 -125 -172l-178 -344q-92 -178 -170 -344h387v428h250v-428h180v-215h-180v-301h-250v301h-555z" />
<glyph unicode="5" horiz-adv-x="1359" d="M236 498v823h899l-62 -225h-588v-424l47 49q31 27 64 47q88 49 213 49q176 0 281 -143q100 -139 100 -367v-26q0 -213 -143 -353q-141 -137 -353 -137q-299 0 -458 238l184 182q51 -90 110 -139q76 -63 168 -64q240 0 240 291q0 209 -129 287q-49 23 -98 22 q-61 0 -125 -35q-90 -49 -152 -147l-82 33q-57 23 -116 39z" />
<glyph unicode="6" horiz-adv-x="1368" d="M178 522v393q0 289 141 461q152 184 422 185q117 0 226 -37q84 -29 155 -76l-108 -225l-2 2q-55 49 -119 78q-76 35 -152 34q-186 0 -260 -141q-31 -57 -43 -141q-10 -68 -10 -160v-51q43 76 129 121q96 53 223 53q197 0 314 -158q106 -143 106 -352q0 -246 -141 -389 q-139 -139 -369 -139q-231 0 -368 141q-144 147 -144 401zM428 502q0 -309 262 -309t262 296q0 313 -252 314q-272 0 -272 -301z" />
<glyph unicode="7" horiz-adv-x="1239" d="M72 981l73 133q47 84 70 119q53 84 147 84h719l13 -39l14 -55q23 -78 37 -119l-615 -1307h-276l618 1309h-413q-49 0 -72 -39q-25 -45 -88 -176z" />
<glyph unicode="8" horiz-adv-x="1353" d="M147 457q0 100 58 196q49 82 129 148q-68 66 -107 139q-47 86 -47 174q0 197 144 322q133 117 329 116h15q209 -4 346 -120q141 -123 141 -318q0 -88 -47 -176q-39 -74 -107 -137q6 -6 11 -8q76 -68 121 -144q55 -94 55 -192q0 -209 -154 -336q-145 -121 -366.5 -121 t-366.5 121q-154 127 -154 336zM397 463q0 -231 271 -232q268 0 268 234q0 96 -74 158q-72 59 -170 59h-51q-98 0 -170 -61q-72 -64 -74 -158zM432 1114q0 -221 213 -221h41q217 0 217 215q0 217 -233 217q-238 0 -238 -211z" />
<glyph unicode="9" horiz-adv-x="1345" d="M150 846q0 246 141 389q139 139 368 139q231 0 369 -141q143 -147 143 -402v-393q0 -289 -141 -461q-152 -184 -422 -184q-117 0 -223 37q-86 29 -158 76l109 225l2 -2q55 -49 119 -78q76 -35 151 -35q186 0 260 142q31 57 43 141q10 68 11 160v51q-43 -76 -129 -121 q-96 -53 -224 -53q-197 0 -313 158q-106 143 -106 352zM397 864q0 -313 252 -313q272 0 273 301q0 309 -262.5 309t-262.5 -297z" />
<glyph unicode=":" horiz-adv-x="583" d="M133 135q0 150 158 150q160 0 160 -150q0 -152 -160 -151q-158 -1 -158 151zM133 934q0 150 158 149q160 0 160 -149q0 -152 -160 -152q-158 0 -158 152z" />
<glyph unicode=";" horiz-adv-x="583" d="M43 -233q125 80 160 124q31 37 30 99v37h-18q-90 0 -90 110q0 147 160 148q180 0 180 -215q0 -279 -289 -453zM133 934q0 150 158 149q160 0 160 -149q0 -152 -160 -152q-158 0 -158 152z" />
<glyph unicode="&#x3c;" horiz-adv-x="1085" d="M162 545l487 542h273v-24l-467 -514l467 -524v-25h-273z" />
<glyph unicode="=" horiz-adv-x="1085" d="M129 188v215h827v-215h-827zM129 692v217h827v-217h-827z" />
<glyph unicode="&#x3e;" horiz-adv-x="1085" d="M162 0v25l467 516l-467 522v24h274l486 -542l-486 -545h-274z" />
<glyph unicode="?" horiz-adv-x="946" d="M121 1407q158 143 364 143q170 0 273 -96q104 -96 104 -254q0 -104 -55 -188q-39 -57 -121 -121l-125 -94q-55 -53 -59 -109l-13 -192h-208l-5 252q0 78 52 143q37 49 112 104l62 43q35 25 53 41q55 45 59 84q2 4 2 11v10q0 135 -147 135q-125 0 -258 -131zM240 133.5 q0 147.5 157.5 147.5t157.5 -147.5t-160 -147.5q-155 0 -155 147.5z" />
<glyph unicode="@" horiz-adv-x="1916" d="M104 504q0 481 263 756q250 262 659 262q362 0 567 -181q217 -188 217 -542q0 -158 -47 -285q-43 -113 -118 -197q-143 -152 -332 -151q-174 0 -232 110h-10q-164 -111 -266 -110q-258 0 -258 301q0 254 119 418q115 160 286 159q129 0 226 -63l10 49h213l-109 -612 q-4 -25 -4 -39q0 -51 64 -51q104 0 180 110q92 129 92 361q0 553 -598 553q-332 0 -526 -219q-203 -227 -203 -629q0 -635 573 -635q164 0 336 63l19 -174q-182 -59 -369 -59q-752 0 -752 805zM774 481q0 -145 119 -145q68 0 182 65l80 445q-80 43 -151 43q-94 0 -160 -117 q-70 -119 -70 -291z" />
<glyph unicode="A" horiz-adv-x="1343" d="M18 0l521 1538h270l256 -764l260 -774h-270l-78 225q-8 20 -19 56l-18 53q-20 63 -35 102h-473l-141 -436h-273zM498 641h350l-168 555l-6 74l-2 -74z" />
<glyph unicode="B" horiz-adv-x="1359" d="M180 1538h576q193 -2 317 -111q133 -117 133 -307v-8q0 -96 -47 -186q-47 -84 -123 -133q94 -47 160 -146q70 -104 70 -215q0 -188 -123 -307q-125 -125 -332 -125h-631v1538zM438 227h328q227 0 227 228q0 86 -65 149q-68 63 -160 64h-330v-441zM438 881h316 q190 0 190 217q0 211 -201 211h-305v-428z" />
<glyph unicode="C" horiz-adv-x="1234" d="M119 643v242q0 266 149 456q162 203 414 205h29q254 -6 454 -151l-139 -221q-68 57 -149 92q-92 39 -175 39h-14q-133 0 -221 -127q-84 -121 -84 -293v-242q0 -190 72 -299q78 -123 233 -123h27q82 0 188 53q39 20 84 48q16 12 37 24l31 21l116 -224l-104 -57 q-59 -31 -111 -53q-131 -53 -235 -53h-39q-252 0 -412 202q-151 191 -151 461z" />
<glyph unicode="D" horiz-adv-x="1462" d="M197 0v1538h575q262 -6 420 -201q150 -186 149 -471v-200q0 -291 -151 -473q-156 -190 -418 -193h-575zM455 242h307q311 0 311 424v200q0 205 -72 314q-78 119 -239 118h-307v-1056z" />
<glyph unicode="E" horiz-adv-x="1251" d="M197 0v1538h936v-238h-678v-403h602v-227h-602v-430h657l29 -240h-944z" />
<glyph unicode="F" horiz-adv-x="1179" d="M197 0v1538h905v-240h-647v-401h579v-227h-579v-670h-258z" />
<glyph unicode="G" horiz-adv-x="1456" d="M135 647v289q0 301 191 485q178 174 448 174q274 0 475 -168l-157 -210q-68 66 -146 102q-92 43 -186 43q-170 0 -266 -121q-94 -121 -95 -326v-270q0 -203 97 -315q90 -106 237 -107q143 0 238 96q96 98 96 261v82h-324l-41 225h619v-305q0 -272 -180 -441 q-170 -156 -410 -155q-260 0 -430 192q-166 186 -166 469z" />
<glyph unicode="H" horiz-adv-x="1521" d="M197 0v1538h258v-637h626v637h258v-1538h-258v664h-626v-664h-258z" />
<glyph unicode="I" horiz-adv-x="653" d="M199 0v1538h260v-1538h-260z" />
<glyph unicode="J" horiz-adv-x="675" d="M53 -348l15 233q33 -10 57 -10q96 0 96 156v1507h252v-1511q0 -195 -106 -299q-86 -86 -220 -86q-43 0 -94 10z" />
<glyph unicode="K" horiz-adv-x="1421" d="M197 0v1538h258v-799l600 799h307l-399 -518l-138 -180l187 -299l174 -267q29 -43 76 -49q10 -2 20 -2q29 0 55 13l6 -234q-61 -25 -120 -25q-39 0 -78 11q-104 29 -170 131l-172 264q-90 141 -156 258l-100 -127l-92 -121v-393h-258z" />
<glyph unicode="L" horiz-adv-x="1142" d="M195 0v1538h258v-1307h647l-43 -231h-862z" />
<glyph unicode="M" horiz-adv-x="1800" d="M176 0l2 1538h369l352 -1137l352 1137h369l2 -1538h-258l-2 1163l-39 -168l-303 -944h-244l-303 944l-39 172v-1167h-258z" />
<glyph unicode="N" horiz-adv-x="1511" d="M197 0v1538h272l578 -1018l16 -67v1085h258v-1538h-268l-580 1032l-18 72v-1104h-258z" />
<glyph unicode="O" horiz-adv-x="1511" d="M121 629v272q0 272 184 459q184 188 450.5 188t450.5 -188q184 -186 185 -459v-272q0 -264 -189 -457q-186 -190 -440 -190h-12q-262 0 -445 188q-184 191 -184 459zM395 621q0 -170 102.5 -283t256.5 -113q152 0 254 113q102 115 102 283v303q0 154 -96 264 q-104 119 -260 119q-150 0 -252 -107q-106 -113 -107 -289v-290z" />
<glyph unicode="P" horiz-adv-x="1327" d="M197 1538h579q199 0 336 -143q135 -145 135 -348q0 -213 -139 -361q-141 -150 -350 -149h-301v-537h-260v1538zM457 774h291q104 2 170 84q59 76 63 189q-4 102 -59 174q-59 80 -156 79h-309v-526z" />
<glyph unicode="Q" horiz-adv-x="1466" d="M129 662v192q0 315 160 502q166 193 465 192q281 0 442 -192q158 -188 158 -502v-156q0 -246 -88 -422q-96 -197 -287 -270l106 -96q37 -20 74 -27q10 -2 19 -2q45 0 90 25v-221q-53 -18 -105 -19q-143 0 -278 141q-23 23 -47 52l-33 41q-35 37 -68 55q-25 14 -71 18 q-250 18 -404 236q-133 193 -133 453zM395 678q0 -213 84 -338q94 -137 269 -137q170 0 260 149q80 131 79 346v133q0 211 -75 343q-90 152 -264 151q-188 0 -279 -141q-74 -115 -74 -312v-194z" />
<glyph unicode="R" horiz-adv-x="1409" d="M197 0v1538h602q207 0 344 -141q135 -141 135 -350q0 -332 -317 -465q29 -35 57 -80q23 -33 49 -84q6 -8 12 -21l35 -61l47 -76q16 -25 53 -37q23 -6 45.5 -6t45.5 6l6 -221q-49 -20 -103 -20q-45 0 -92 14q-100 31 -162 117q-33 45 -69 114l-101 197q-23 43 -41 65 q-47 63 -125 64h-163v-553h-258zM455 784h325q100 2 168 82q66 78 66 180.5t-58 176.5q-63 78 -163 77h-338v-516z" />
<glyph unicode="S" horiz-adv-x="1300" d="M135 166l90 266q68 -74 197 -139q135 -68 233 -76h31q84 0 143 29q82 41 99 131q4 23 4 43q0 133 -168 196q-41 16 -96 33q-23 5 -52 13l-24 6q-10 2 -12 4l-13 4q-63 14 -100 26q-53 18 -92 37q-137 68 -201 215q-33 80 -33 160q0 76 29 152q59 158 223 229 q115 51 260 51q41 0 84 -4q111 -10 232 -57q106 -43 205 -105l-109 -254q-172 164 -358 185q-31 4 -60 4q-152 0 -203 -115q-16 -37 -16 -76t16 -77q35 -80 123 -115q39 -16 105 -35l88 -25q16 -6 31 -8q70 -20 114 -37q59 -23 96 -45q221 -127 222 -348q0 -55 -15 -115 q-39 -178 -196 -266q-133 -74 -332 -73h-31q-131 0 -287 63q-131 51 -227 123z" />
<glyph unicode="T" horiz-adv-x="1169" d="M63 1538h1045v-223h-403v-1315h-259v1315h-380z" />
<glyph unicode="U" horiz-adv-x="1513" d="M170 633v903h262v-926q0 -395 330 -395q334 0 334 395v926h262v-909q0 -289 -164 -467q-164 -180 -424 -180h-12q-270 0 -428 178q-160 178 -160 475z" />
<glyph unicode="V" horiz-adv-x="1296" d="M33 1540h284l347 -1272l319 1272h281l-422 -1540h-350z" />
<glyph unicode="W" horiz-adv-x="2050" d="M78 1538h280l265 -1089l18 -119l23 112l237 1002h260l260 -993l19 -121l18 123l244 1085h278l-368 -1538h-326l-227 887l-25 137l-22 -137l-209 -887h-326z" />
<glyph unicode="X" horiz-adv-x="1366" d="M45 0l502 793l-500 745h311q29 -41 68 -106l164 -269l94 -147q43 66 86 139q31 49 76 129l72 127l77 127h308l-476 -741l301 -463q51 -74 76 -88q18 -12 45 -13h8q10 0 27 5l25 4l2 -246l-72 -12q-14 -2 -29 -2q-29 0 -51 6q-68 12 -127 67q-43 39 -94 115l-150 252 l-98 151q-47 -72 -98 -159l-168 -295l-72 -119h-307z" />
<glyph unicode="Y" horiz-adv-x="1198" d="M0 1538h289l149 -321l111 -250q18 -43 22 -62q10 -31 21 -104q14 78 22 104q4 14 13 29l6 14q2 8 4 8l4 11q14 33 35 75l225 496h297q-219 -410 -426 -856q-49 -104 -49 -201v-481h-258v481q0 96 -41 185l-90 186l-88 178q0 2 -2 4q0 4 -2 4z" />
<glyph unicode="Z" horiz-adv-x="1216" d="M78 283l377 522l200 274l179 236h-705v223h948l64 -227l-772 -1071h753l-2 -240h-966z" />
<glyph unicode="[" horiz-adv-x="735" d="M193 -285v1786h491l-18 -201h-213v-1384h213l18 -201h-491z" />
<glyph unicode="\" horiz-adv-x="780" d="M-39 1501h217l641 -1786h-219z" />
<glyph unicode="]" horiz-adv-x="735" d="M51 -285l19 201h213v1384h-213l-19 201h492v-1786h-492z" />
<glyph unicode="^" horiz-adv-x="1085" d="M158 997v23l209 522h350l211 -522v-23h-219l-170 459l-166 -459h-215z" />
<glyph unicode="_" d="M66 -147h892v-187h-892v187z" />
<glyph unicode="`" d="M279 1501h299l167 -287v-22h-221z" />
<glyph unicode="a" horiz-adv-x="1183" d="M96 342q0 172 119 274q106 92 262 93h51q158 0 260 -97v33q0 94 -14 135q-49 115 -190 115q-184 0 -357 -107l-63 242l76 29q45 14 88 24q106 27 233 27q207 0 342 -125t135 -319v-666h-233l-4 84q-106 -96 -281 -96h-43q-156 0 -262 90q-119 100 -119 264zM354 354.5 q0 -149.5 178 -149.5h89q66 0 114 39q55 43 56 110q0 72 -54 113q-49 37 -116 37h-89q-178 0 -178 -149.5z" />
<glyph unicode="b" horiz-adv-x="1263" d="M176 0v1507l250 47v-585q117 133 313 133q166 0 281 -105q119 -111 119 -276v-346q0 -166 -119 -277q-117 -106 -281 -106q-195 0 -313 135l-8 -127h-242zM428 432q0 -106 68 -168q63 -59 157.5 -59t157.5 59q70 61 70 168v225q0 100 -70 166q-66 61 -158 61.5 t-157 -61.5q-68 -66 -68 -166v-225z" />
<glyph unicode="c" horiz-adv-x="1048" d="M96 453v192q0 190 137 326q135 135 328 135h17q223 0 370 -100l-71 -224q-68 49 -129 76q-82 33 -168 33q-100 0 -164 -71.5t-64 -178.5v-186q0 -104 68 -174q66 -68 160 -72h14q92 0 180 49q63 33 113 84l71 -233q-72 -57 -184 -91q-102 -29 -196 -28h-17 q-193 0 -328 135q-137 135 -137 328z" />
<glyph unicode="d" horiz-adv-x="1243" d="M125 395v310q0 176 121 290q115 111 280 111q195 0 312 -131v536l249 43v-1554h-239l-8 125q-121 -135 -314 -135q-166 0 -280 112q-121 117 -121 293zM383 430q0 -104 70 -168q63 -57 159 -57q92 0 156 57q68 63 68 168v234q0 100 -68 165q-66 61 -156 62 q-94 0 -159 -62q-70 -66 -70 -165v-234z" />
<glyph unicode="e" horiz-adv-x="1146" d="M102 483v119q0 219 148 363q143 141 366 141q186 0 308 -102q123 -102 123 -267v-6q0 -283 -375 -282h-312v-19q0 -100 74 -170q70 -66 168 -65q119 0 227 47q96 43 177 120l-9 -258q-2 -2 -6 -4l-51 -30q-41 -25 -84 -39q-55 -20 -121 -33q-76 -12 -166 -12 q-199 0 -331 135q-136 139 -136 362zM360 639h285q152 0 152 121q0 129 -181 129q-131 0 -198 -80q-58 -66 -58 -170z" />
<glyph unicode="f" horiz-adv-x="851" d="M66 909v201h129v61q12 373 393 377q127 0 205 -35v-215q-53 25 -99 35q-41 10 -80 10q-16 0 -32 -2q-66 -6 -99 -41q-41 -43 -41 -131v-59h346v-201h-346v-909h-247v909h-129z" />
<glyph unicode="g" horiz-adv-x="1241" d="M125 395v310q0 176 121 292q115 113 280 113q190 0 312 -135v92l249 39v-1096q0 -205 -137 -329q-123 -115 -293 -115h-86q-158 0 -321 82l29 266q145 -133 339 -133q219 0 220 199v145q-117 -131 -312 -131q-166 0 -280 110q-121 115 -121 291zM383 434q0 -100 70 -166 q68 -61 161 -61q90 0 156 61q68 66 68 166v240q0 104 -68 168q-63 57 -156 57q-96 0 -161 -57q-70 -63 -70 -168v-240z" />
<glyph unicode="h" horiz-adv-x="1302" d="M176 0v1516l250 34v-573q121 135 311 135q166 0 281 -115q121 -119 121 -305v-692h-258v662q0 115 -70 182q-66 63 -162 63q-92 0 -155 -63q-68 -68 -68 -182v-662h-250z" />
<glyph unicode="i" horiz-adv-x="593" d="M147 1407q0 141 142 141h10q143 -4 143 -141q0 -139 -137 -143h-16q-142 0 -142 143zM170 0v1085l250 35v-1120h-250z" />
<glyph unicode="j" horiz-adv-x="591" d="M-31 -176q45 -16 80 -17q131 0 131 224v1054l250 35v-1075q0 -219 -106 -340q-109 -123 -254 -123q-49 0 -101 12v230zM158 1407q0 141 141 141h8q145 -4 146 -141q0 -139 -138 -143h-16q-141 0 -141 143z" />
<glyph unicode="k" horiz-adv-x="1200" d="M174 0v1522l250 34v-956l450 498h291l-291 -330l-114 -125l119 -170l127 -176q47 -66 110 -66q18 0 39 7v-228q-55 -18 -104 -18q-143 0 -236 129l-233 342l-158 -170v-293h-250z" />
<glyph unicode="l" horiz-adv-x="600" d="M176 0v1516l248 34v-1550h-248z" />
<glyph unicode="m" horiz-adv-x="1968" d="M164 0v1067l250 35v-125q121 135 303 135q225 0 340 -197q139 195 356 197q164 0 277 -113q117 -117 116 -292v-707h-258v662q0 246 -223 245q-90 0 -151 -63q-63 -70 -64 -182v-662h-258v662q0 246 -223 245q-92 0 -152 -63q-63 -68 -63 -182v-662h-250z" />
<glyph unicode="n" horiz-adv-x="1300" d="M176 0v1067l250 35v-125q121 135 311 135q166 0 281 -115q121 -119 121 -305v-692h-258v662q0 115 -70 182q-66 63 -162 63q-92 0 -155 -63q-68 -68 -68 -182v-662h-250z" />
<glyph unicode="o" horiz-adv-x="1218" d="M104 475v150q0 201 140 340q143 143 358 143q223 0 369 -143q137 -137 141 -340v-154q0 -199 -141 -338q-145 -143 -367 -143q-215 0 -360 145q-140 139 -140 340zM354 487q0 -289 254 -288q109 0 180 82q70 82 70 206v109q0 135 -72 219q-70 84 -182 84t-180 -84 q-70 -86 -70 -221v-107z" />
<glyph unicode="p" horiz-adv-x="1265" d="M147 -410v1483l250 35v-125q121 135 312 135q166 0 280 -112q121 -117 121 -293v-314q0 -176 -121 -290q-115 -111 -280 -111q-195 0 -312 131v-500zM397 438q0 -100 68 -166q66 -61 156 -61q94 0 161 61q70 66 70 166v244q0 104 -70 168q-66 57 -161 57q-92 0 -156 -57 q-68 -63 -68 -168v-244z" />
<glyph unicode="q" horiz-adv-x="1222" d="M106 389v309q0 176 121 293q115 113 281 113q190 0 311 -135v125h250v-1469l-250 -41v535q-117 -131 -311 -131q-166 0 -281 110q-121 115 -121 291zM365 430q0 -100 69 -166q68 -61 162 -61q90 0 156 61q68 66 67 166v240q0 104 -67 168q-63 57 -156 57q-96 0 -162 -57 q-70 -63 -69 -168v-240z" />
<glyph unicode="r" horiz-adv-x="839" d="M160 0v1085l250 21v-188q47 86 108 133q74 57 172 57q55 0 94 -21l-14 -237q-33 18 -92 18h-12q-256 -6 -256 -272v-596h-250z" />
<glyph unicode="s" horiz-adv-x="1062" d="M127 786q0 45 12 95q27 111 135 170q98 55 238 55q141 0 264 -37q51 -16 101 -37q37 -16 84 -41l-74 -211q-174 109 -301 123q-31 2 -56 2q-133 0 -157 -78q-8 -27 -8 -47q0 -86 122 -108q76 -14 150 -33q84 -20 137 -43q211 -84 211 -266q0 -37 -8 -76 q-51 -266 -385 -266q-68 0 -148 14q-63 10 -133 31q-55 16 -108 37q-20 6 -39 14l-27 12q14 51 37 115l4 14q2 2 4 13l11 24q10 29 16 51q174 -111 369 -120h14q127 0 141 100q2 8 2 16q0 88 -121 125q-31 8 -75 17l-78 14q-96 18 -150 41q-98 41 -147 135q-37 65 -37 145z " />
<glyph unicode="t" horiz-adv-x="919" d="M43 909v201h147v315l248 48v-363h381v-201h-381v-497q0 -195 150 -195q106 0 192 78v-234q-45 -29 -102 -47q-74 -23 -154 -22q-170 0 -258 133q-76 113 -76 289v495h-147z" />
<glyph unicode="u" horiz-adv-x="1290" d="M166 410v692h258v-662q0 -115 70 -182q66 -63 161 -63q92 0 156 63q68 68 68 182v662h249v-1102h-237l-12 125q-121 -135 -312 -135q-166 0 -280 114q-121 120 -121 306z" />
<glyph unicode="v" d="M33 1108h262l45 -156l160 -639q8 -35 14 -69q8 53 27 118l94 386l53 206q29 102 45 154h262l-346 -1108h-272z" />
<glyph unicode="w" horiz-adv-x="1662" d="M76 1104h262l162 -733q2 -4 4 -35l6 -53l12 88l64 245l127 488h241l193 -731l10 -66q2 -14 2 -24l10 88q16 70 43 200q25 104 54 242l63 291h262l-293 -1104h-282l-166 662l-16 96l-15 -96l-166 -662h-284z" />
<glyph unicode="x" horiz-adv-x="1056" d="M29 1104h286l205 -371l105 187l102 184h289l-240 -389l-104 -160l196 -315l56 -95l92 -145h-287l-209 367l-205 -367h-284l131 207q2 2 4 8q2 0 2 4q2 2 4 2q4 10 8 17l205 317l-104 158l-207 321q-22 37 -45 70z" />
<glyph unicode="y" horiz-adv-x="1038" d="M18 1104h271l246 -793l59 207l119 451q29 100 41 135h268l-410 -1268q-78 -242 -303 -242q-16 0 -33 3q-84 4 -163 34l22 228q55 -41 123 -41q16 0 33 2l10 2q6 0 10 2q12 0 21 4q18 6 35 18q33 31 55 125z" />
<glyph unicode="z" horiz-adv-x="1095" d="M98 225l107 129l461 539h-510l-21 211h832v-238l-549 -653h555v-213h-803z" />
<glyph unicode="{" horiz-adv-x="735" d="M111 508v201h116q139 0 140 90q0 39 -37 94q-14 20 -39 49l-43 51q-55 68 -82 117q-37 68 -37 133q0 119 82 184q90 74 283 74h153v-201h-162q-111 0 -110 -83q0 -33 37 -80l39 -47l32 -35q6 -8 13 -13q55 -63 82 -108q37 -66 36 -123q0 -168 -227 -195v-16 q227 -25 227 -194q0 -55 -36 -119q-27 -45 -82 -109l-35 -37l-49 -59q-37 -49 -37 -82q0 -84 110 -84h162v-201h-153q-190 0 -281 72q-84 63 -84 184q0 66 37 136q27 47 82 116l43 51q25 29 39 50q37 55 37 94q0 90 -140 90h-116z" />
<glyph unicode="|" horiz-adv-x="567" d="M182 -451v2024h203v-2024h-203z" />
<glyph unicode="}" horiz-adv-x="735" d="M88 -84h162q111 0 110 84q0 33 -36 80l-82 96q-57 61 -84 107q-37 67 -37 123q0 168 227 194v16q-227 25 -227 195q0 55 37 119q27 45 84 108l82 97q37 49 36 82q0 84 -110 83h-162v201h154q190 1 280 -71q84 -63 84 -185q0 -66 -37 -135q-27 -47 -82 -115l-43 -53 q-25 -29 -38 -49q-37 -55 -37 -94q0 -90 139 -90h117v-201h-117q-139 0 -139 -90q0 -39 37 -94q14 -20 38 -50l43 -51q55 -68 82 -117q37 -68 37 -133q0 -119 -80 -184q-92 -74 -284 -74h-154v201z" />
<glyph unicode="~" horiz-adv-x="1085" d="M123 414v223q96 90 235 90q45 0 99 -16q33 -10 94 -37l92 -39q51 -16 94 -17q92 0 224 113v-225q-111 -100 -224 -100q-45 0 -98 16q-33 12 -94 39l-94 39q-51 16 -93 16q-116 0 -235 -102z" />
<glyph unicode="&#xa1;" horiz-adv-x="622" d="M154 991q0 150 157 150q156 0 156 -150q0 -147 -156 -147q-157 0 -157 147zM186 158l27 473h197q4 -53 8 -142l16 -331v-570h-248v570z" />
<glyph unicode="&#xa2;" horiz-adv-x="1204" d="M174 506v192q0 190 137 326q135 135 328 135h16q72 0 136 -12l59 170h94l-67 -191q88 -27 149 -67l-72 -223q-78 51 -149 79l-225 -645q31 -10 59 -10h16q45 0 103 23q47 18 100 49q39 23 76 49l31 22l77 -235q-170 -125 -387 -125h-16q-70 0 -131 18l-62 -176h-94 l74 209q-252 131 -252 412zM430 487q0 -98 72 -170l217 621q-27 6 -57 6h-15q-92 0 -155 -70q-61 -68 -62 -159v-228z" />
<glyph unicode="&#xa3;" horiz-adv-x="1200" d="M137 0v225q63 0 131 6l49 9q31 6 54 14q59 27 75 86q6 27 7 51q0 39 -17 78q-10 25 -30 55l-35 54h-226v186h117q-94 166 -94 332q0 213 160 340q145 117 356 116q279 0 424 -198l-182 -160q-82 131 -244 131q-256 0 -256 -229q0 -63 47 -170q37 -82 86 -162h463 l-80 -186h-276q43 -96 43 -177q0 -45 -9 -82q-12 -49 -38 -94h425v-225h-950z" />
<glyph unicode="&#xa4;" horiz-adv-x="1196" d="M117 186l106 111q-82 125 -82 276q0 156 82 281l-106 111l129 125l104 -113q113 72 248 72t248 -72l104 113l129 -125l-106 -111q82 -125 82 -278.5t-82 -278.5l106 -111l-129 -125l-104 113q-113 -72 -248 -72t-248 72l-104 -113zM330 575.5q0 -301.5 266 -301.5 q270 0 270 301.5t-270 301.5q-266 0 -266 -301.5z" />
<glyph unicode="&#xa5;" horiz-adv-x="1243" d="M23 1538h288l150 -321l110 -250q18 -43 23 -62q10 -31 20 -104q14 78 23 104q4 14 12 29l6 14q2 8 4 8l265 582h297l-195 -377l-186 -385h213v-114h-267q-29 -68 -36 -144h303v-115h-308v-403h-258v403h-297v115h295q-6 74 -36 144h-259v114h203z" />
<glyph unicode="&#xa6;" horiz-adv-x="567" d="M182 0v616h203v-616h-203zM182 885v616h203v-616h-203z" />
<glyph unicode="&#xa7;" horiz-adv-x="1175" d="M170 1122q0 25 4 54q33 276 320 292q20 2 38 2q51 0 103 -8q27 -4 59 -12l43 -8q10 -2 15 -4q70 -16 112 -19q20 -2 41 -2q41 0 82 8l-18 -120l-19 -93q-29 -8 -65 -8q-53 0 -123 17l-90 20q-49 14 -70 16q-31 4 -55 5q-121 0 -135 -95q-2 -16 -2 -30q0 -74 65 -103 q29 -12 88 -20q16 -4 55 -8l60 -9q350 -51 350 -331q0 -18 -2 -37q-8 -125 -88 -199q90 -84 90 -233q0 -20 -2 -43q-12 -150 -121 -226q-102 -70 -276 -69h-2q-51 0 -105 10l-90 22q-55 12 -96 19q-35 4 -74 4q-27 0 -53 -2l27 227h18q45 0 96 -8l197 -49q45 -8 82 -8h14 q139 8 139 114q0 131 -250 152q-166 12 -262 94q-98 86 -98 232q0 27 2 53q16 121 86 190q-90 78 -90 213zM412 711v-19q0 -123 180 -141q25 -2 47 -2q137 0 143 115v10q0 45 -34 78q-45 47 -140 55q-20 2 -41 2q-145 0 -155 -98z" />
<glyph unicode="&#xa8;" d="M184 1382q0 127 125 127t125 -127t-125 -127t-125 127zM590 1382q0 127 127 127q123 0 123 -127t-125 -127t-125 127z" />
<glyph unicode="&#xa9;" horiz-adv-x="1542" d="M92 752q0 342 178 534q180 197 502 197t500 -192.5t178 -538.5q0 -338 -172 -531q-178 -199 -506 -198.5t-506 198.5q-174 193 -174 531zM217 752q0 -291 135 -447q141 -166 422 -166q555 0 555 613q0 614 -555 614q-557 0 -557 -614zM455 688v131q0 131 94 225 q92 92 225 93h12q154 0 254 -70l-49 -154q-47 33 -90 52q-59 25 -110 24h-11q-150 0 -149 -158v-155q0 -63 43 -110.5t100 -47.5h12q55 0 140 49q14 8 28 19l43 30l54 -159q-111 -86 -265 -86h-12q-133 0 -225 92q-94 94 -94 225z" />
<glyph unicode="&#xaa;" horiz-adv-x="860" d="M84 985q0 121 84 193q74 63 182 63h37q109 0 182 -67v22q0 66 -10 94q-37 82 -133 82q-125 0 -250 -76l-45 170l53 19q33 12 62 18q76 18 164 19q145 0 239 -88q94 -86 94 -224v-465h-163l-2 60q-72 -68 -197 -68h-31q-106 0 -182 64q-84 69 -84 184zM264 993.5 q0 -104.5 125 -104.5h62q119 0 118.5 104.5t-118.5 104.5h-62q-125 0 -125 -104.5z" />
<glyph unicode="&#xab;" horiz-adv-x="1136" d="M74 557l291 473h223l-250 -473l250 -473h-223zM549 557l293 473h219l-246 -473l246 -473h-219z" />
<glyph unicode="&#xac;" horiz-adv-x="1200" d="M119 580v221h960v-570h-233v349h-727z" />
<glyph unicode="&#xad;" horiz-adv-x="512" d="M47 440v207h418v-207h-418z" />
<glyph unicode="&#xae;" horiz-adv-x="931" d="M96 1133q0 174 101 280q100 109 270 109q166 0 268 -105q100 -106 101 -284q0 -172 -99 -279q-100 -109 -270 -109q-172 0 -272 109q-99 107 -99 279zM174 1133q0 -145 72 -230q78 -90 223 -90q289 0 289 320q0 322 -291 321q-293 1 -293 -321zM332 946v379h145 q55 0 88 -37q35 -35 35 -88q0 -74 -70 -113l41 -67q0 -6 15 -6q6 0 8 2l12 4l2 -72l-6 -4q-8 -2 -24 -2q-18 0 -35 6q-18 6 -35 27l-19 29l-30 61q-10 10 -23 10h-24v-129h-80zM412 1149h61q18 0 33 14q14 18 14 37q0 23 -12 37q-14 14 -31 14h-65v-102z" />
<glyph unicode="&#xaf;" d="M242 1288v213h542v-213h-542z" />
<glyph unicode="&#xb0;" horiz-adv-x="821" d="M80 1233q0 309 328 309q334 0 333 -307q0 -309 -331 -309q-330 0 -330 307zM268 1235q0 -156 142 -156q143 0 143 156q0 152 -143 151q-142 1 -142 -151z" />
<glyph unicode="&#xb1;" horiz-adv-x="1085" d="M129 0v201h827v-201h-827zM129 573v203h307v311h213v-311h307v-203h-307v-309h-213v309h-307z" />
<glyph unicode="&#xb2;" horiz-adv-x="847" d="M109 1772q27 37 49 63q33 35 63 59q82 61 180 62q137 0 220 -86q76 -86 75 -203q0 -59 -32 -125q-29 -53 -86 -115q-37 -41 -109 -108l-111 -107h347v-147h-551l-39 149l92 89l205 194q51 51 84 88q43 49 43 105q0 23 -9 45q-29 80 -114 82q-53 0 -99 -45 q-16 -16 -41 -50q-6 -6 -12 -16l-37 -49z" />
<glyph unicode="&#xb3;" horiz-adv-x="847" d="M88 1106l100 125q12 -8 27 -21l25 -20q35 -27 53 -39q59 -43 104 -43q66 2 103 37q31 35 30 108v15q0 121 -135 125h-125v141h129q119 0 119 125v31q-8 121 -123 120q-53 0 -104 -34q-31 -20 -86 -78l-103 125l43 39q31 25 64 39q92 55 186 55q123 0 205 -78 q84 -80 84 -203v-12q0 -53 -33 -111q-27 -43 -73 -92q4 -4 12 -8l10 -6q98 -80 98 -184v-9q0 -133 -84 -213q-88 -80 -217 -79q-82 0 -170 49q-33 18 -73 47z" />
<glyph unicode="&#xb4;" d="M279 1233v22l165 287h301l-247 -309h-219z" />
<glyph unicode="&#xb5;" horiz-adv-x="1267" d="M174 -446v1550h250v-682q0 -117 37 -160q27 -29 84 -29q27 0 49 7l80 30q25 6 53 6q37 0 74 -16q14 -6 26 -16q6 -2 13 -6l8 -7v873h252v-1092l-187 -24q-39 47 -79 63q-31 14 -76 15q-35 0 -64 -11q-16 -6 -49 -22q-29 -18 -49 -25q-35 -10 -76 -10q-53 0 -96 31v-475 h-250z" />
<glyph unicode="&#xb6;" horiz-adv-x="1146" d="M66 893q0 481 530 481q92 0 195 -10q113 -10 202 -31v-1480h-184v1321q-57 14 -117 14v-1335h-184v598h-59q-197 0 -285 96q-98 102 -98 346z" />
<glyph unicode="&#xb7;" horiz-adv-x="583" d="M133 547q0 150 158 149q160 0 160 -149q0 -152 -160 -152q-158 0 -158 152z" />
<glyph unicode="&#xb8;" d="M299 -430l29 141q92 -27 166 -26q66 0 65 55q0 35 -27 47q-23 12 -139 41l47 197h125l-28 -115q188 -51 188 -182q0 -178 -223 -179q-101 1 -203 21z" />
<glyph unicode="&#xb9;" horiz-adv-x="847" d="M174 1720l232 213l147 -45v-825h-166v688l-137 -131z" />
<glyph unicode="&#xba;" horiz-adv-x="890" d="M92 1081v105q0 139 98 237q98 100 250 101q156 0 258 -101q96 -96 99 -237v-111q0 -137 -97 -233q-102 -100 -258 -101q-152 0 -252 101q-98 98 -98 239zM266 1090q0 -203 178 -203q176 0 177 203v75q0 213 -179 213q-176 0 -176 -215v-73z" />
<glyph unicode="&#xbb;" horiz-adv-x="1136" d="M74 84l248 473l-248 473h221l293 -473l-293 -473h-221zM549 84l248 473l-248 473h221l291 -473l-291 -473h-221z" />
<glyph unicode="&#xbc;" horiz-adv-x="2023" d="M174 1288l232 213l147 -45v-825h-166v688l-137 -131zM657 0l543 1501h166l-543 -1501h-166zM1243 371l254 487q16 29 64 84q43 49 88 94h198l-149 -174l-37 -51l-121 -229l-117 -232h236v287h166v-287h123v-147h-123v-203h-166v203h-346z" />
<glyph unicode="&#xbd;" horiz-adv-x="2023" d="M174 1288l232 213l147 -45v-825h-166v688l-137 -131zM657 0l543 1501h166l-543 -1501h-166zM1290 707q27 37 49 63q33 35 64 59q82 61 180 62q137 0 219 -86q76 -86 76 -203q0 -59 -33 -125q-29 -53 -86 -115q-37 -41 -108 -108l-111 -107h346v-147h-551l-39 150l93 88 l204 194q51 51 84 88q43 49 43 105q0 23 -8 45q-29 80 -115 82q-53 0 -98 -45q-16 -16 -41 -50q-6 -6 -12 -16l-37 -49z" />
<glyph unicode="&#xbe;" horiz-adv-x="2023" d="M88 674l100 125q12 -8 27 -21l25 -20q35 -27 53 -39q59 -43 104 -43q66 2 103 37q31 35 30 108v15q0 121 -135 125h-125v141h129q119 0 119 125v30q-8 121 -123 121q-53 0 -104 -35q-31 -20 -86 -77l-103 125l43 39q31 25 64 38q92 55 186 56q123 0 205 -78 q84 -80 84 -203v-12q0 -53 -33 -111q-27 -43 -73 -92q4 -4 12 -8l10 -6q98 -80 98 -185v-8q0 -133 -84 -213q-88 -80 -217 -80q-82 0 -170 50q-33 18 -73 47zM657 0l543 1501h166l-543 -1501h-166zM1243 371l254 487q16 29 64 84q43 49 88 94h198l-149 -174l-37 -51 l-121 -229l-117 -232h236v287h166v-287h123v-147h-123v-203h-166v203h-346z" />
<glyph unicode="&#xbf;" horiz-adv-x="929" d="M86 -86q0 104 55 188q39 57 123 121q6 6 17 13q6 6 16 12l33 24q37 27 57 45q57 53 59 109l13 192h209l4 -239v-12q0 -74 -45 -138q-37 -51 -115 -106q-12 -10 -31 -23l-30 -22q-37 -25 -56 -41q-57 -45 -61 -86q-2 -12 -2 -25q0 -109 117 -129q18 -2 36 -2 q121 0 252 131l90 -219q-143 -129 -331 -141h-35q-158 0 -260 86q-115 96 -115 262zM393 981q0 147 160 147q156 0 156 -147t-158 -147t-158 147z" />
<glyph unicode="&#xc0;" horiz-adv-x="1345" d="M18 0l521 1538h270l256 -764l260 -774h-270l-78 225q-8 20 -19 56l-18 53q-20 63 -35 102h-473l-141 -436h-273zM336 1853h274l158 -219v-20h-217zM498 641h350l-168 555l-6 74l-2 -74z" />
<glyph unicode="&#xc1;" horiz-adv-x="1345" d="M18 0l521 1538h270l256 -764l260 -774h-270l-78 225q-8 20 -19 56l-18 53q-20 63 -35 102h-473l-141 -436h-273zM498 641h350l-168 555l-6 74l-2 -74zM537 1614v20l159 219h275l-217 -239h-217z" />
<glyph unicode="&#xc2;" horiz-adv-x="1341" d="M18 0l521 1538h270l256 -764l260 -774h-270l-78 225q-8 20 -19 56l-18 53q-20 63 -35 102h-473l-141 -436h-273zM346 1614v20l141 219h332l142 -219v-20h-203l-109 164l-106 -164h-197zM498 641h350l-168 555l-6 74l-2 -74z" />
<glyph unicode="&#xc3;" horiz-adv-x="1341" d="M18 0l521 1538h270l256 -764l260 -774h-270l-78 225q-8 20 -19 56l-18 53q-20 63 -35 102h-473l-141 -436h-273zM315 1634q16 131 72 185q41 41 115 41q27 0 51 -5q29 -6 61 -22l103 -51q29 -14 47 -15q47 0 59 86h172q-14 -125 -65 -180q-45 -45 -121 -45q-59 0 -113 27 l-102 51q-27 14 -47 14q-47 0 -60 -86h-172zM498 641h350l-168 555l-6 74l-2 -74z" />
<glyph unicode="&#xc4;" horiz-adv-x="1341" d="M18 0l521 1538h270l256 -764l260 -774h-270l-78 225q-8 20 -19 56l-18 53q-20 63 -35 102h-473l-141 -436h-273zM365 1743q0 111 120.5 110.5t120.5 -110.5q0 -113 -123 -113q-118 0 -118 113zM498 641h350l-168 555l-6 74l-2 -74zM758 1743q0 111 123 110 q119 0 118 -110q0 -113 -118 -113q-123 0 -123 113z" />
<glyph unicode="&#xc5;" horiz-adv-x="1339" d="M18 0l521 1538h270l256 -764l260 -774h-270l-78 225q-8 20 -19 56l-18 53q-20 63 -35 102h-473l-141 -436h-273zM430 1792q0 170 250 170q244 0 244 -168q0 -170 -248 -170q-246 0 -246 168zM498 641h350l-168 555l-6 74l-2 -74zM588 1792q0 -76 88 -76q90 0 90 76 q0 78 -90 78q-88 0 -88 -78z" />
<glyph unicode="&#xc6;" horiz-adv-x="1939" d="M18 0l521 1538h1294v-238h-627v-325q0 -100 105 -101h446v-227h-477q-74 0 -74 -100v-307h606l29 -240h-893v600l4 45h-450l-211 -645h-273zM567 864h404q-18 51 -23 148v303l-239 2z" />
<glyph unicode="&#xc7;" horiz-adv-x="1230" d="M121 647v242q0 266 149 457q162 203 414 204h29q254 -6 454 -151l-139 -221q-68 57 -149 92q-92 39 -174 39h-15q-133 0 -221 -127q-84 -121 -84 -293v-242q0 -190 72 -299q78 -123 233 -123h27q82 0 188 54q39 20 84 47q16 12 37 24l31 21l117 -224l-105 -57 q-59 -31 -111 -53q-131 -53 -235 -53h-33l-18 -74q188 -51 188 -182q0 -178 -223 -179q-100 0 -203 21l29 141q92 -27 166 -26q66 0 65 55q0 35 -26 47q-23 12 -140 41l41 168q-205 45 -329 233q-119 180 -119 418z" />
<glyph unicode="&#xc8;" horiz-adv-x="1226" d="M197 0v1538h936v-238h-678v-403h602v-227h-602v-430h657l29 -240h-944zM369 1853h274l158 -219v-20h-217z" />
<glyph unicode="&#xc9;" horiz-adv-x="1226" d="M197 0v1538h936v-238h-678v-403h602v-227h-602v-430h657l29 -240h-944zM469 1614v20l160 219h274l-217 -239h-217z" />
<glyph unicode="&#xca;" horiz-adv-x="1226" d="M197 0v1538h936v-238h-678v-403h602v-227h-602v-430h657l29 -240h-944zM362 1614v20l142 219h332l141 -219v-20h-203l-108 164l-107 -164h-197z" />
<glyph unicode="&#xcb;" horiz-adv-x="1226" d="M197 0v1538h936v-238h-678v-403h602v-227h-602v-430h657l29 -240h-944zM342 1743q0 111 121 110.5t121 -110.5q0 -113 -123 -113q-119 0 -119 113zM735 1743q0 111 123 110q119 0 119 -110q0 -113 -119 -113q-123 0 -123 113z" />
<glyph unicode="&#xcc;" horiz-adv-x="675" d="M43 1853h274l158 -219v-20h-217zM197 0v1501h282v-1501h-282z" />
<glyph unicode="&#xcd;" horiz-adv-x="675" d="M197 0v1501h282v-1501h-282zM199 1614v20l159 219h275l-217 -239h-217z" />
<glyph unicode="&#xce;" horiz-adv-x="675" d="M39 1614v20l137 221h322l135 -221v-20h-195l-106 166l-103 -166h-190zM197 0v1501h282v-1501h-282z" />
<glyph unicode="&#xcf;" horiz-adv-x="675" d="M33 1722q0 111 117 111q119 0 118 -111q0 -113 -121 -112q-114 -1 -114 112zM197 0v1501h282v-1501h-282zM414 1722q0 111 118 111q117 0 117 -111q0 -113 -117 -112q-118 -1 -118 112z" />
<glyph unicode="&#xd0;" horiz-adv-x="1454" d="M33 688v201h164v649h565q262 -4 418 -201q150 -186 149 -471v-200q0 -291 -149 -473q-156 -190 -418 -193h-565v688h-164zM455 242h297q174 0 247 108q63 98 64 316v200q0 217 -66 320q-72 115 -239 114h-303v-411h280v-201h-280v-446z" />
<glyph unicode="&#xd1;" horiz-adv-x="1501" d="M197 0v1540h272l578 -1020l16 -67v1087h258v-1540h-268l-580 1032l-18 72v-1104h-258zM422 1632q16 131 72 185q41 41 114 41q27 0 51 -5q29 -6 62 -22l102 -51q29 -14 47 -15q47 0 60 86h172q-14 -125 -66 -180q-45 -45 -121 -45q-59 0 -112 27l-103 51q-27 14 -47 14 q-47 0 -59 -86h-172z" />
<glyph unicode="&#xd2;" horiz-adv-x="1490" d="M121 629v272q0 272 184 459q184 188 450.5 188t450.5 -188q184 -186 185 -459v-272q0 -264 -189 -457q-186 -190 -440 -190h-12q-262 0 -445 188q-184 191 -184 459zM395 621q0 -170 102.5 -283t256.5 -113q152 0 254 113q102 115 102 283v303q0 154 -96 264 q-104 119 -260 119q-150 0 -252 -107q-106 -113 -107 -289v-290zM428 1853h274l158 -219v-20h-217z" />
<glyph unicode="&#xd3;" horiz-adv-x="1490" d="M121 629v272q0 272 184 459q184 188 450.5 188t450.5 -188q184 -186 185 -459v-272q0 -264 -189 -457q-186 -190 -440 -190h-12q-262 0 -445 188q-184 191 -184 459zM395 621q0 -170 102.5 -283t256.5 -113q152 0 254 113q102 115 102 283v303q0 154 -96 264 q-104 119 -260 119q-150 0 -252 -107q-106 -113 -107 -289v-290zM618 1614v20l160 219h275l-217 -239h-218z" />
<glyph unicode="&#xd4;" horiz-adv-x="1486" d="M121 629v272q0 272 184 459q184 188 450.5 188t450.5 -188q184 -186 185 -459v-272q0 -264 -189 -457q-186 -190 -440 -190h-12q-262 0 -445 188q-184 191 -184 459zM395 621q0 -170 102.5 -283t256.5 -113q152 0 254 113q102 115 102 283v303q0 154 -96 264 q-104 119 -260 119q-150 0 -252 -107q-106 -113 -107 -289v-290zM453 1614v20l141 219h332l141 -219v-20h-203l-108 164l-107 -164h-196z" />
<glyph unicode="&#xd5;" horiz-adv-x="1490" d="M121 629v272q0 272 184 459q184 188 450.5 188t450.5 -188q184 -186 185 -459v-272q0 -264 -189 -457q-186 -190 -440 -190h-12q-262 0 -445 188q-184 191 -184 459zM395 621q0 -170 102.5 -283t256.5 -113q152 0 254 113q102 115 102 283v303q0 154 -96 264 q-104 119 -260 119q-150 0 -252 -107q-106 -113 -107 -289v-290zM416 1634q16 131 71 185q41 41 115 41q27 0 51 -5q29 -6 62 -22l102 -51q29 -14 47 -15q47 0 60 86h172q-14 -125 -66 -180q-45 -45 -121 -45q-59 0 -112 27l-103 51q-27 14 -47 14q-47 0 -59 -86h-172z" />
<glyph unicode="&#xd6;" horiz-adv-x="1501" d="M121 629v272q0 272 184 459q184 188 450.5 188t450.5 -188q184 -186 185 -459v-272q0 -264 -189 -457q-186 -190 -440 -190h-12q-262 0 -445 188q-184 191 -184 459zM395 621q0 -170 102.5 -283t256.5 -113q152 0 254 113q102 115 102 283v303q0 154 -96 264 q-104 119 -260 119q-150 0 -252 -107q-106 -113 -107 -289v-290zM444 1743q0 111 121 110.5t121 -110.5q0 -113 -123 -113q-119 0 -119 113zM838 1743q0 111 123 110q119 0 118 -110q0 -113 -118 -113q-123 0 -123 113z" />
<glyph unicode="&#xd7;" horiz-adv-x="1085" d="M100 258l291 291l-289 289l152 151l289 -289l288 289l150 -151l-289 -289l293 -291l-151 -149l-291 290l-293 -290z" />
<glyph unicode="&#xd8;" horiz-adv-x="1486" d="M121 686v158q0 305 147 497q160 207 445 207h57q203 0 350 -114l133 206h103l-172 -266q178 -195 178 -530v-158q0 -317 -156 -508q-162 -197 -438 -196h-55q-207 0 -351 114l-133 -207h-100l170 265q-178 196 -178 532zM397 702q0 -186 60 -303l522 813 q-84 104 -231 105q-199 0 -283 -148q-37 -63 -53 -155q-14 -82 -15 -191v-121zM508 322q90 -96 237 -97q184 0 269 146q72 121 71 336v116q0 193 -57 310z" />
<glyph unicode="&#xd9;" horiz-adv-x="1531" d="M186 633v903h263v-926q0 -395 329 -395q334 0 334 395v926h262v-909q0 -289 -164 -467q-164 -180 -424 -180h-12q-270 0 -428 178q-160 178 -160 475zM492 1853h274l158 -219v-20h-217z" />
<glyph unicode="&#xda;" horiz-adv-x="1482" d="M186 633v903h263v-926q0 -395 329 -395q334 0 334 395v926h262v-909q0 -289 -164 -467q-164 -180 -424 -180h-12q-270 0 -428 178q-160 178 -160 475zM625 1614v20l159 219h275l-217 -239h-217z" />
<glyph unicode="&#xdb;" horiz-adv-x="1511" d="M186 633v903h263v-926q0 -395 329 -395q334 0 334 395v926h262v-909q0 -289 -164 -467q-164 -180 -424 -180h-12q-270 0 -428 178q-160 178 -160 475zM483 1614v20l142 219h331l142 -219v-20h-203l-109 164l-106 -164h-197z" />
<glyph unicode="&#xdc;" horiz-adv-x="1482" d="M186 633v903h263v-926q0 -395 329 -395q334 0 334 395v926h262v-909q0 -289 -164 -467q-164 -180 -424 -180h-12q-270 0 -428 178q-160 178 -160 475zM457 1743q0 111 120.5 110.5t120.5 -110.5q0 -113 -123 -113q-118 0 -118 113zM850 1743q0 111 123 110 q119 0 119 -110q0 -113 -119 -113q-123 0 -123 113z" />
<glyph unicode="&#xdd;" horiz-adv-x="1198" d="M0 1538h289l149 -321l111 -250q18 -43 22 -62q10 -31 21 -104q14 78 22 104q4 14 13 29l6 14q2 8 4 8l4 11q14 33 35 75l225 496h297q-219 -410 -426 -856q-49 -104 -49 -201v-481h-258v481q0 96 -41 185l-90 186l-88 178q0 2 -2 4q0 4 -2 4zM444 1573v20l160 219h275 l-217 -239h-218z" />
<glyph unicode="&#xde;" horiz-adv-x="1304" d="M197 0v1501h280v-258h203q252 0 379 -108q139 -117 139 -365q0 -258 -160 -385q-139 -113 -379 -113h-182v-272h-280zM477 502h187q115 0 172 51q70 63 69 215q0 141 -67 201q-53 49 -160 49h-201v-516z" />
<glyph unicode="&#xdf;" horiz-adv-x="1196" d="M158 0v1184q0 205 94 301q109 109 364 108q420 0 420 -327q0 -74 -43 -150q-29 -51 -92 -123l-37 -41q-8 -8 -12 -14q-29 -31 -43 -53q-43 -57 -43 -105q0 -49 55 -100q20 -18 58 -47l65 -49q82 -63 123 -119q55 -78 55 -170q0 -315 -334 -315q-53 0 -108 10 q-70 12 -166 43l41 211q102 -39 143 -49q37 -10 74 -11q109 0 109 111q0 45 -56 94q-20 18 -57 43l-31 23q-10 6 -16 12q-10 6 -16 12q-84 57 -123 109q-55 74 -56 160q0 74 41 147q29 51 92 123q4 6 13 14q0 2 6 6q2 4 6 9l23 26q27 31 43 55q41 59 41 111q0 139 -187 139 q-199 0 -198 -188v-1190h-248z" />
<glyph unicode="&#xe0;" horiz-adv-x="1175" d="M102 342q0 172 119 274q106 92 262 93h52q158 0 260 -97v33q0 94 -15 135q-49 115 -190 115q-184 0 -357 -107l-63 242l76 29q45 14 88 24q106 27 233 27q207 0 342 -125t135 -319v-666h-233l-4 84q-106 -96 -281 -96h-43q-156 0 -262 90q-119 100 -119 264zM272 1501 h299l168 -287v-22h-221zM360 354.5q0 -149.5 179 -149.5h88q66 0 114 39q55 43 56 110q0 72 -54 113q-49 37 -116 37h-88q-179 0 -179 -149.5z" />
<glyph unicode="&#xe1;" horiz-adv-x="1173" d="M102 342q0 172 119 274q106 92 262 93h52q158 0 260 -97v33q0 94 -15 135q-49 115 -190 115q-184 0 -357 -107l-63 242l76 29q45 14 88 24q106 27 233 27q207 0 342 -125t135 -319v-666h-233l-4 84q-106 -96 -281 -96h-43q-156 0 -262 90q-119 100 -119 264zM360 354.5 q0 -149.5 179 -149.5h88q66 0 114 39q55 43 56 110q0 72 -54 113q-49 37 -116 37h-88q-179 0 -179 -149.5zM444 1192v22l166 287h301l-247 -309h-220z" />
<glyph unicode="&#xe2;" horiz-adv-x="1179" d="M102 342q0 172 119 274q106 92 262 93h52q158 0 260 -97v33q0 94 -15 135q-49 115 -190 115q-184 0 -357 -107l-63 242l76 29q45 14 88 24q106 27 233 27q207 0 342 -125t135 -319v-666h-233l-4 84q-106 -96 -281 -96h-43q-156 0 -262 90q-119 100 -119 264zM260 1192v20 l162 289h350l162 -289v-20h-215l-125 223l-123 -223h-211zM360 354.5q0 -149.5 179 -149.5h88q66 0 114 39q55 43 56 110q0 72 -54 113q-49 37 -116 37h-88q-179 0 -179 -149.5z" />
<glyph unicode="&#xe3;" horiz-adv-x="1193" d="M102 342q0 172 119 274q106 92 262 93h52q158 0 260 -97v33q0 94 -15 135q-49 115 -190 115q-184 0 -357 -107l-63 242l76 29q45 14 88 24q106 27 233 27q207 0 342 -125t135 -319v-666h-233l-4 84q-106 -96 -281 -96h-43q-156 0 -262 90q-119 100 -119 264zM209 1192 q16 164 76 231q47 53 127 54q78 0 135 -37l108 -68q31 -18 58 -18q63 0 71 110h185q-16 -160 -72 -227q-47 -57 -131 -57q-74 0 -135 37l-109 67q-29 18 -57 19q-63 0 -72 -111h-184zM360 354.5q0 -149.5 179 -149.5h88q66 0 114 39q55 43 56 110q0 72 -54 113 q-49 37 -116 37h-88q-179 0 -179 -149.5z" />
<glyph unicode="&#xe4;" horiz-adv-x="1189" d="M102 342q0 172 119 274q106 92 262 93h52q158 0 260 -97v33q0 94 -15 135q-49 115 -190 115q-184 0 -357 -107l-63 242l76 29q45 14 88 24q106 27 233 27q207 0 342 -125t135 -319v-666h-233l-4 84q-106 -96 -281 -96h-43q-156 0 -262 90q-119 100 -119 264zM279 1341 q0 127 124.5 127t124.5 -127t-124.5 -127t-124.5 127zM360 354.5q0 -149.5 179 -149.5h88q66 0 114 39q55 43 56 110q0 72 -54 113q-49 37 -116 37h-88q-179 0 -179 -149.5zM684 1341q0 127 127 127q123 0 123 -127t-125 -127t-125 127z" />
<glyph unicode="&#xe5;" horiz-adv-x="1187" d="M102 342q0 172 119 274q106 92 262 93h52q158 0 260 -97v33q0 94 -15 135q-49 115 -190 115q-184 0 -357 -107l-63 242l76 29q45 14 88 24q106 27 233 27q207 0 342 -125t135 -319v-666h-233l-4 84q-106 -96 -281 -96h-43q-156 0 -262 90q-119 100 -119 264zM332 1370 q0 190 262 191q260 0 260 -189q0 -190 -260 -190q-262 0 -262 188zM360 354.5q0 -149.5 179 -149.5h88q66 0 114 39q55 43 56 110q0 72 -54 113q-49 37 -116 37h-88q-179 0 -179 -149.5zM500 1370q0 -86 92 -86q94 0 94 86q0 88 -94 88q-92 0 -92 -88z" />
<glyph unicode="&#xe6;" horiz-adv-x="1802" d="M104 350v17q0 139 107 231q111 94 289 94h32q164 0 248 -98v47q0 94 -14 135q-51 115 -180 115q-172 0 -346 -109l-64 242l76 29q43 16 84 26q102 27 227 27q215 0 344 -133q125 131 307 131h66q176 0 295 -103q121 -104 121 -266v-6q0 -287 -361 -287h-106 q-78 0 -127 -22q-61 -27 -62 -76q0 -76 95 -117q61 -31 135 -30q88 0 194 43q92 35 195 120l-8 -258q-51 -47 -152 -82q-94 -33 -164 -32h-143q-150 0 -279 88q-76 0 -137 -13q-37 -8 -102 -30q-63 -23 -105 -31q-68 -14 -147 -14q-137 0 -223 88q-95 98 -95 274zM346 330 q0 -98 98 -129q29 -8 62 -8h20q29 4 78 18l84 22q35 8 68 9q12 0 24 -2v73q0 78 -57 133q-55 51 -133 52h-64q-156 0 -176 -131q-4 -21 -4 -37zM1034 590q47 47 140 47h135q141 0 141 121q0 125 -143 125h-82q-92 0 -144 -62q-47 -55 -47 -139v-92z" />
<glyph unicode="&#xe7;" horiz-adv-x="1005" d="M104 453v192q0 190 138 326q135 135 327 135h17q223 0 370 -100l-71 -224q-74 47 -133 74q-86 35 -160 35h-14q-92 0 -156 -70q-61 -68 -62 -159v-228q0 -92 61.5 -159.5t147.5 -67.5h17q45 0 102 22q47 18 100 50q39 23 76 49l31 22l78 -235q-170 -125 -387 -125h-4 l-19 -72q188 -51 189 -182q0 -178 -224 -178q-100 0 -202 20l28 141q92 -27 166 -26q66 0 66 55q0 35 -27 47q-23 12 -139 41l41 168q-156 35 -254 160q-103 127 -103 289z" />
<glyph unicode="&#xe8;" horiz-adv-x="1150" d="M102 483v119q0 219 148 363q143 141 366 141q186 0 308 -102q123 -102 123 -267v-6q0 -283 -375 -282h-312v-19q0 -100 74 -170q70 -66 168 -65q119 0 227 47q96 43 177 120l-9 -258q-2 -2 -6 -4l-51 -30q-41 -25 -84 -39q-55 -20 -121 -33q-76 -12 -166 -12 q-199 0 -331 135q-136 139 -136 362zM236 1501h299l167 -287v-22h-221zM360 639h285q152 0 152 121q0 129 -181 129q-131 0 -198 -80q-58 -66 -58 -170z" />
<glyph unicode="&#xe9;" horiz-adv-x="1150" d="M102 483v119q0 219 148 363q143 141 366 141q186 0 308 -102q123 -102 123 -267v-6q0 -283 -375 -282h-312v-19q0 -100 74 -170q70 -66 168 -65q119 0 227 47q96 43 177 120l-9 -258q-2 -2 -6 -4l-51 -30q-41 -25 -84 -39q-55 -20 -121 -33q-76 -12 -166 -12 q-199 0 -331 135q-136 139 -136 362zM360 639h285q152 0 152 121q0 129 -181 129q-131 0 -198 -80q-58 -66 -58 -170zM449 1192v22l165 287h301l-247 -309h-219z" />
<glyph unicode="&#xea;" horiz-adv-x="1148" d="M102 483v119q0 219 148 363q143 141 366 141q186 0 308 -102q123 -102 123 -267v-6q0 -283 -375 -282h-312v-19q0 -100 74 -170q70 -66 168 -65q119 0 227 47q96 43 177 120l-9 -258q-2 -2 -6 -4l-51 -30q-41 -25 -84 -39q-55 -20 -121 -33q-76 -12 -166 -12 q-199 0 -331 135q-136 139 -136 362zM260 1192v20l162 289h350l162 -289v-20h-215l-125 223l-123 -223h-211zM360 639h285q152 0 152 121q0 129 -181 129q-131 0 -198 -80q-58 -66 -58 -170z" />
<glyph unicode="&#xeb;" horiz-adv-x="1155" d="M104 483v119q0 219 148 363q143 141 366 141q186 0 308 -102q123 -102 123 -267v-6q0 -283 -375 -282h-312v-19q0 -100 74 -170q70 -66 168 -65q119 0 227 47q96 43 177 120l-9 -258q-2 -2 -6 -4l-51 -30q-41 -25 -84 -39q-55 -20 -121 -33q-76 -12 -166 -12 q-199 0 -331 135q-136 139 -136 362zM258 1341q0 127 125 127t125 -127t-125 -127t-125 127zM362 639h285q152 0 152 121q0 129 -181 129q-131 0 -198 -80q-58 -66 -58 -170zM664 1341q0 127 127 127q123 0 122.5 -127t-125 -127t-124.5 127z" />
<glyph unicode="&#xec;" horiz-adv-x="602" d="M-43 1501h299l168 -287v-22h-221zM176 0v1085l250 35v-1120h-250z" />
<glyph unicode="&#xed;" horiz-adv-x="602" d="M174 0v1081l250 35v-1116h-250zM174 1192v22l166 287h301l-248 -309h-219z" />
<glyph unicode="&#xee;" horiz-adv-x="602" d="M0 1192v20l143 289h314l143 -289v-20h-192l-111 223l-109 -223h-188zM176 0v1085l250 35v-1120h-250z" />
<glyph unicode="&#xef;" horiz-adv-x="602" d="M6 1341q0 127 115 127q117 0 117 -127t-117 -127q-115 0 -115 127zM176 0v1085l250 35v-1120h-250zM362 1341q0 127 117 127t117 -127t-117 -127t-117 127z" />
<glyph unicode="&#xf0;" horiz-adv-x="1173" d="M104 522q0 283 132 416q119 119 346 119q57 0 123 -17q-47 98 -123 211l-148 -84l-76 109l146 84q-35 49 -103 135l238 98l82 -108l133 76l76 -109l-133 -78q145 -219 211 -409q61 -184 61 -375q0 -303 -113 -453q-119 -158 -372 -157q-480 -1 -480 542zM371 524 q0 -344 215 -344q125 0 172 90q47 88 47 314q0 131 -31 247q-92 25 -176 25q-119 0 -170 -68q-57 -78 -57 -264z" />
<glyph unicode="&#xf1;" horiz-adv-x="1253" d="M176 0v1067l250 35v-125q121 135 311 135q166 0 281 -115q121 -119 121 -305v-692h-258v662q0 115 -70 182q-66 63 -162 63q-92 0 -155 -63q-68 -68 -68 -182v-662h-250zM287 1192q16 164 75 231q47 53 127 54q78 0 136 -37l108 -68q31 -18 58 -18q63 0 71 110h185 q-16 -160 -72 -227q-47 -57 -131 -57q-74 0 -135 37l-109 67q-29 18 -57 19q-63 0 -72 -111h-184z" />
<glyph unicode="&#xf2;" horiz-adv-x="1218" d="M104 475v150q0 201 140 340q143 143 358 143q223 0 369 -143q137 -137 141 -340v-156q0 -197 -139 -334q-145 -145 -369 -145q-215 0 -360 145q-140 139 -140 340zM258 1501h299l168 -287v-22h-221zM354 487q0 -289 254 -288q109 0 180 82q70 82 70 206v109 q0 135 -72 219q-70 84 -182 84t-180 -84q-70 -86 -70 -221v-107z" />
<glyph unicode="&#xf3;" horiz-adv-x="1214" d="M104 475v150q0 201 140 340q143 143 358 143q223 0 369 -143q137 -137 141 -340v-156q0 -197 -139 -334q-145 -145 -369 -145q-215 0 -360 145q-140 139 -140 340zM354 487q0 -289 254 -288q109 0 180 82q70 82 70 206v109q0 135 -72 219q-70 84 -182 84t-180 -84 q-70 -86 -70 -221v-107zM479 1192v22l166 287h301l-248 -309h-219z" />
<glyph unicode="&#xf4;" horiz-adv-x="1218" d="M104 475v150q0 201 140 340q143 143 358 143q223 0 369 -143q137 -137 141 -340v-156q0 -197 -139 -334q-145 -145 -369 -145q-215 0 -360 145q-140 139 -140 340zM270 1192v20l162 289h350l162 -289v-20h-215l-125 223l-123 -223h-211zM354 487q0 -289 254 -288 q109 0 180 82q70 82 70 206v109q0 135 -72 219q-70 84 -182 84t-180 -84q-70 -86 -70 -221v-107z" />
<glyph unicode="&#xf5;" horiz-adv-x="1214" d="M104 475v150q0 201 140 340q143 143 358 143q223 0 369 -143q137 -137 141 -340v-156q0 -197 -139 -334q-145 -145 -369 -145q-215 0 -360 145q-140 139 -140 340zM231 1192q16 164 76 231q47 53 127 54q78 0 135 -37l109 -68q31 -18 57 -18q63 0 72 110h184 q-16 -160 -71 -227q-47 -57 -132 -57q-74 0 -135 37l-108 67q-29 18 -58 19q-63 0 -71 -111h-185zM354 487q0 -289 254 -288q109 0 180 82q70 82 70 206v109q0 135 -72 219q-70 84 -182 84t-180 -84q-70 -86 -70 -221v-107z" />
<glyph unicode="&#xf6;" horiz-adv-x="1214" d="M104 475v150q0 201 140 340q143 143 358 143q223 0 369 -143q137 -137 141 -340v-156q0 -197 -139 -334q-145 -145 -369 -145q-215 0 -360 145q-140 139 -140 340zM283 1341q0 127 124.5 127t124.5 -127t-124.5 -127t-124.5 127zM354 487q0 -289 254 -288q109 0 180 82 q70 82 70 206v109q0 135 -72 219q-70 84 -182 84t-180 -84q-70 -86 -70 -221v-107zM688 1341q0 127 127 127q123 0 123 -127t-125 -127t-125 127z" />
<glyph unicode="&#xf7;" horiz-adv-x="1214" d="M100 500v96h1020v-96h-1020zM449 166q0 150 159.5 149.5t159.5 -149.5q0 -152 -162 -152q-157 0 -157 152zM449 928q0 150 159.5 149.5t159.5 -149.5q0 -154 -162 -154q-157 0 -157 154z" />
<glyph unicode="&#xf8;" horiz-adv-x="1185" d="M104 444v197q0 195 138 330q135 133 323 133h49q121 0 234 -64l121 197h90l-148 -242q166 -139 166 -354v-199q0 -195 -137 -329q-135 -133 -326 -133h-47q-127 0 -235 63l-119 -199h-90l147 242q-166 141 -166 358zM354 457q0 -88 41 -164l338 559q-51 43 -119 43h-49 q-88 0 -147 -74q-63 -82 -64 -211v-153zM449 231q53 -43 118 -43h47q88 0 150 70q63 76 63 199v153q0 104 -43 178z" />
<glyph unicode="&#xf9;" horiz-adv-x="1271" d="M172 410v692h258v-662q0 -115 70 -182q66 -63 162 -63q92 0 155 63q68 68 68 182v662h250v-1102h-238l-12 125q-121 -135 -312 -135q-166 0 -280 114q-121 120 -121 306zM285 1501h299l168 -287v-22h-222z" />
<glyph unicode="&#xfa;" horiz-adv-x="1277" d="M172 410v692h258v-662q0 -115 70 -182q66 -63 162 -63q92 0 155 63q68 68 68 182v662h250v-1102h-238l-12 125q-121 -135 -312 -135q-166 0 -280 114q-121 120 -121 306zM510 1192v22l166 287h301l-248 -309h-219z" />
<glyph unicode="&#xfb;" horiz-adv-x="1277" d="M172 410v692h258v-662q0 -115 70 -182q66 -63 162 -63q92 0 155 63q68 68 68 182v662h250v-1102h-238l-12 125q-121 -135 -312 -135q-166 0 -280 114q-121 120 -121 306zM319 1192v20l162 289h350l162 -289v-20h-215l-125 223l-123 -223h-211z" />
<glyph unicode="&#xfc;" horiz-adv-x="1275" d="M172 410v692h258v-662q0 -115 70 -182q66 -63 162 -63q92 0 155 63q68 68 68 182v662h250v-1102h-238l-12 125q-121 -135 -312 -135q-166 0 -280 114q-121 120 -121 306zM330 1341q0 127 125 127t125 -127t-125 -127t-125 127zM735 1341q0 127 127 127q123 0 123 -127 t-125 -127t-125 127z" />
<glyph unicode="&#xfd;" horiz-adv-x="1073" d="M33 1104h270l246 -793l59 207l119 451q29 100 41 135h268l-409 -1268q-82 -242 -303 -242q-16 0 -33 3q-84 4 -164 34l23 228q55 -41 122 -41q16 0 33 2l10 2q6 0 11 2q12 0 20 4q18 6 35 18q33 31 55 125zM432 1192v22l166 287h301l-248 -309h-219z" />
<glyph unicode="&#xfe;" horiz-adv-x="1206" d="M174 -449v2010l248 30v-608q37 49 92 80q70 37 158 37q188 0 311 -133q125 -135 125 -349v-178q0 -184 -68 -299q-84 -143 -264 -159q-14 -2 -28 -2q-31 0 -60 6q-29 8 -67 22l-29 15l-29 10q-27 8 -51 8h-10q-80 -6 -80 -94v-322zM424 203q0 4 39 20q37 16 74 17h14 q23 -2 51 -11l49 -18q47 -18 78 -18q8 0 16 2q68 10 95 69q20 43 20 123v275q0 219 -207 223h-4q-225 0 -225 -228v-454z" />
<glyph unicode="&#xff;" horiz-adv-x="1073" d="M39 1104h270l246 -793l59 207l119 451q29 100 41 135h268l-409 -1268q-82 -242 -303 -242q-16 0 -33 3q-84 4 -164 34l23 228q55 -41 123 -41q16 0 32 2l11 2q6 0 10 2q12 0 20 4q18 6 35 18q33 31 55 125zM219 1341q0 127 125 127t125 -127t-125 -127t-125 127z M625 1341q0 127 127 127q123 0 122.5 -127t-125 -127t-124.5 127z" />
<glyph unicode="&#x152;" horiz-adv-x="2062" d="M121 688v158q0 305 147 497q160 207 445 207h57q184 0 326 -96v82h889v-238h-631v-303q0 -100 104 -100h451v-227h-482q-55 0 -67 -52l-6 -57v-321h610l29 -240h-897v82q-141 -96 -328 -96h-55q-283 0 -443 206q-149 193 -149 498zM397 705q0 -209 76 -332 q90 -145 274.5 -145.5t270.5 145.5q74 123 74 336v116q0 219 -80 349q-88 145 -262 145q-199 0 -285 -148q-37 -63 -53 -155q-14 -84 -15 -191v-120z" />
<glyph unicode="&#x153;" horiz-adv-x="1822" d="M102 451v188q0 195 138 330q135 133 323 133h49q199 0 332 -139q127 139 316 139h65q176 0 295 -103q121 -104 121 -268v-6q0 -287 -361 -287h-106q-78 0 -127 -20q-61 -27 -62 -76q0 -72 93 -119q63 -31 139 -30q88 0 192.5 43t194.5 120l-8 -258q-133 -115 -318 -114 h-141q-186 0 -301 131q-141 -131 -324 -131h-47q-190 0 -325 135q-138 135 -138 332zM352 463q0 -119 64 -197q61 -74 149 -73h47q88 0 150 71q63 76 63 199v145q0 133 -65 213q-59 74 -148 74h-49q-86 0 -147 -76q-63 -80 -64 -211v-145zM1079 586q45 49 140 49h135 q141 0 141 119q0 127 -145 127h-80q-90 0 -144 -64q-47 -55 -47 -137v-94z" />
<glyph unicode="&#x178;" horiz-adv-x="1198" d="M0 1538h289l149 -321l111 -250q18 -43 22 -62q10 -31 21 -104q14 78 22 104q4 14 13 29l6 14q2 8 4 8l4 11q14 33 35 75l225 496h297q-219 -410 -426 -856q-49 -104 -49 -201v-481h-258v481q0 96 -41 185l-90 186l-88 178q0 2 -2 4q0 4 -2 4zM274 1743q0 111 121 110.5 t121 -110.5q0 -113 -123 -113q-119 0 -119 113zM668 1743q0 111 123 110q119 0 118 -110q0 -113 -118 -113q-123 0 -123 113z" />
<glyph unicode="&#x2c6;" d="M174 1233v20l162 289h350l162 -289v-20h-215l-125 223l-123 -223h-211z" />
<glyph unicode="&#x2dc;" d="M131 1233q16 164 76 231q47 53 127 54q78 0 135 -37l109 -68q31 -18 57 -18q63 0 72 110h184q-16 -160 -72 -227q-47 -57 -131 -57q-74 0 -135 36l-109 68q-29 18 -57 18q-63 0 -72 -110h-184z" />
<glyph unicode="&#x2013;" d="M66 440v207h892v-207h-892z" />
<glyph unicode="&#x2014;" horiz-adv-x="2048" d="M66 440v207h1916v-207h-1916z" />
<glyph unicode="&#x2018;" horiz-adv-x="499" d="M59 1233q0 227 265 369l116 -152q-109 -53 -137 -86q-23 -25 -22 -80v-16h24q100 0 101 -105q0 -139 -166 -139q-181 0 -181 209z" />
<glyph unicode="&#x2019;" horiz-adv-x="499" d="M59 1171q109 53 138 86q23 25 22 80v17h-24q-100 0 -101 104q0 139 166 139q180 0 180 -208q0 -227 -264 -369z" />
<glyph unicode="&#x201a;" horiz-adv-x="499" d="M59 -141q109 53 138 86q23 25 22 80v16h-24q-100 0 -101 104q0 139 166 140q180 0 180 -209q0 -227 -264 -369z" />
<glyph unicode="&#x201c;" horiz-adv-x="911" d="M59 1229q0 227 265 368l116 -151q-109 -53 -137 -86q-23 -25 -22 -80v-16h24q100 0 101 -105q0 -139 -166 -139q-181 0 -181 209zM471 1229q0 227 264 368l117 -151q-109 -53 -137 -86q-23 -25 -23 -80v-16h25q100 0 100 -105q0 -139 -166 -139q-180 0 -180 209z" />
<glyph unicode="&#x201d;" horiz-adv-x="913" d="M59 1171q109 53 138 86q23 25 22 80v17h-24q-100 0 -101 104q0 139 166 139q180 0 180 -208q0 -227 -264 -369zM473 1171q109 53 137 86q23 25 23 80v17h-25q-100 0 -100 104q0 139 166 139q180 0 180 -208q0 -227 -264 -369z" />
<glyph unicode="&#x201e;" horiz-adv-x="913" d="M59 -141q109 53 138 86q23 25 22 80v16h-24q-100 0 -101 104q0 139 166 140q180 0 180 -209q0 -227 -264 -369zM473 -141q109 53 137 86q23 25 23 80v16h-25q-100 0 -100 104q0 139 166 140q180 0 180 -209q0 -227 -264 -369z" />
<glyph unicode="&#x2022;" d="M242 272v539h540v-539h-540z" />
<glyph unicode="&#x2026;" horiz-adv-x="1533" d="M133 135q0 150 158 150q160 0 160 -150q0 -152 -160 -151q-158 -1 -158 151zM608 135q0 150 158 150q160 0 160 -150q0 -152 -160 -151q-158 -1 -158 151zM1083 135q0 150 158 150q160 0 160 -150q0 -152 -160 -151q-158 -1 -158 151z" />
<glyph unicode="&#x2039;" horiz-adv-x="665" d="M76 557l293 473h221l-248 -473l248 -473h-221z" />
<glyph unicode="&#x203a;" horiz-adv-x="665" d="M76 84l248 473l-248 473h221l293 -473l-293 -473h-221z" />
<glyph unicode="&#x20ac;" horiz-adv-x="1222" d="M123 549v123h110v180h-110v123h117q27 240 172 399q156 170 385 172h28q162 -6 312 -71l-84 -240q-129 70 -236 70h-14q-113 0 -197 -97q-78 -92 -100 -233h520l-33 -123h-493v-180h526l-33 -123h-489q16 -152 88 -236q78 -92 211 -92h26q57 0 127 27q57 20 119 57 l82 -233q-84 -43 -158 -66q-86 -27 -163 -26h-39q-227 0 -383 170q-147 158 -174 399h-117z" />
<glyph unicode="&#x2122;" horiz-adv-x="1701" d="M82 1497h168l47 -4q35 -4 61 -18q47 23 117 22h166v-133h-178q-14 0 -23 -4q-4 -2 -6 -6l-2 -13v-616h-151v627l-7 6q-6 6 -28 6h-162zM809 725v772h207l174 -541l176 541h209v-772h-154v567l-6 -57l-160 -467h-131l-157 463l-6 59v-565h-152z" />
<glyph unicode="&#xe000;" horiz-adv-x="1105" d="M0 1105h1105v-1105h-1105v1105z" />
<glyph unicode="&#xfb01;" horiz-adv-x="1329" d="M33 909v201h129v61q12 373 393 377q49 0 102 -8l74 -12l-2 -236q0 4 -55 25q-63 23 -113 22h-14q-72 -6 -103 -36q-37 -39 -36 -134v-59h489l250 10v-1120h-250v909h-487v-909h-248v909h-129zM874 1407q0 141 142 141h14q139 -4 139 -141q0 -139 -137 -143h-16 q-142 0 -142 143z" />
<glyph unicode="&#xfb02;" horiz-adv-x="1380" d="M72 909v201h129v61q12 383 401 383q55 0 111 -6q39 -4 90 -12l74 -12q37 -6 63 -6l250 16v-1534h-248v1307h-10q-16 0 -39 4l-68 14q-47 10 -84 16q-51 6 -98 7q-90 0 -137 -35q-59 -45 -60 -142v-61h302v-201h-299v-909h-248v909h-129z" />
<glyph unicode="&#xfb03;" horiz-adv-x="2297" d="M66 909v201h129v61q12 373 393 377q127 0 205 -35v-215q-53 25 -99 35q-41 10 -80 10q-16 0 -32 -2q-66 -6 -99 -41q-41 -43 -41 -131v-59h346v-201h-346v-909h-247v909h-129zM918 909v201h129v61q12 373 393 377q127 0 205 -35v-215q-53 25 -99 35q-41 10 -80 10 q-16 0 -32 -2q-66 -6 -99 -41q-41 -43 -41 -131v-59h346v-201h-346v-909h-247v909h-129zM1851 1407q0 141 142 141h10q143 -4 143 -141q0 -139 -137 -143h-16q-142 0 -142 143zM1874 0v1085l250 35v-1120h-250z" />
<glyph unicode="&#xfb04;" horiz-adv-x="2304" d="M66 909v201h129v61q12 373 393 377q127 0 205 -35v-215q-53 25 -99 35q-41 10 -80 10q-16 0 -32 -2q-66 -6 -99 -41q-41 -43 -41 -131v-59h346v-201h-346v-909h-247v909h-129zM918 909v201h129v61q12 373 393 377q127 0 205 -35v-215q-53 25 -99 35q-41 10 -80 10 q-16 0 -32 -2q-66 -6 -99 -41q-41 -43 -41 -131v-59h346v-201h-346v-909h-247v909h-129zM1880 0v1516l248 34v-1550h-248z" />
</font>
</defs>
</svg>
